<?xml version="1.0" encoding="UTF-8"?><svg id="Layer_2" xmlns="http://www.w3.org/2000/svg" viewBox="0 0 427.08 337.43"><defs><style>.cls-1{fill:#fdf6e6;}.cls-2{fill:#b5dff7;}.cls-3{fill:#292827;}</style></defs><g id="Layer_1-2"><path class="cls-3" d="m216.98,193.8h146.16c0,19.09-78.7,103.41-92.73,106.65-14.02,3.24-21.27,4.85-56.87,4.85-35.6,0-42.85-1.62-56.87-4.85-14.02-3.24-92.73-87.56-92.73-106.65h153.03Zm56.41,117.03l-4.47,19.99c-.13.58-.54,1.05-1.1,1.24-.62.22-15.54,5.36-54.27,5.36s-53.66-5.14-54.27-5.36c-.56-.2-.97-.67-1.1-1.24l-4.32-19.33-.15-.66c-.13-.56.04-1.15.44-1.56.33-.34.78-.53,1.24-.53.1,0,.2,0,.3.03,0,0,.25.05.73.12,4.35.72,27.52,4.32,57.14,4.32,32.55,0,57.62-4.4,57.87-4.44.1-.02.2-.03.3-.03.46,0,.91.19,1.24.53.4.42.56,1,.44,1.56Z"/><path class="cls-2" d="m421.93,168.02c0,22.49-20.58,40.72-45.96,40.72-11.7,0-22.37-3.87-30.48-10.26-8.11,6.39-18.76,10.26-30.46,10.26-18.47,0-34.4-9.66-41.7-23.57-9.38,16.17-33.4,27.66-61.54,27.66-22.13,0-41.7-7.11-53.62-18.01h-.02c-10.43,8.52-25.76,13.92-42.83,13.92-12.94,0-24.86-3.08-34.41-8.3-5.89,1.49-12.23,2.3-18.85,2.3-31.42,0-56.89-18.23-56.89-40.72,0-18.21,16.7-33.64,39.76-38.85-.02-.29-.02-.6-.02-.89,0-21.22,22.65-38.64,51.6-40.55-.45-2.06-.69-4.18-.69-6.34,0-22.49,25.46-40.72,56.89-40.72,4.09,0,8.06.31,11.91.89,6.98-17.65,27.13-30.41,50.93-30.41s43.35,12.37,50.58,29.6c.98-.05,1.96-.09,2.94-.09,25.39,0,45.98,18.23,45.98,40.72,0,3.9-.62,7.66-1.77,11.22.58-.02,1.19-.03,1.77-.03,25.38,0,45.96,18.23,45.96,40.72,0,.76-.02,1.49-.07,2.23,4.71-1.44,9.78-2.23,15.05-2.23,25.38,0,45.96,18.23,45.96,40.72Z"/><path class="cls-1" d="m354.16,105.95c-8.1-11.62-22.59-19.37-39.14-19.37-.58,0-1.19.02-1.77.03,1.15-3.56,1.77-7.32,1.77-11.22,0-22.49-20.58-40.72-45.98-40.72-.98,0-1.96.03-2.94.09-7.23-17.23-27.15-29.6-50.58-29.6s-43.95,12.77-50.93,30.41c-3.85-.58-7.82-.89-11.91-.89-31.42,0-56.89,18.23-56.89,40.72,0,2.16.24,4.28.69,6.34-13.33.88-25.31,5.05-34.37,11.36,7.72,10.15,14.09,15.82,23.44,16.6,13.43,1.12,21.27-6.72,36.39-6.16,15.11.56,19.59,35.76,53.18,35.76s35.78-25.13,50.36-25.13,17.38,39.2,38.65,39.2,19.59-30.24,27.99-30.24,10.64,6.72,24.07,6.72c11.19,0,30.53-12.82,37.97-23.89Z"/><path class="cls-3" d="m375.98,122.15s-.01,0-.02,0c-3.41,0-6.77.3-10.04.88-2.27-21.91-21.78-39.4-46.21-41.41.31-2.05.47-4.13.47-6.22,0-25.21-22.78-45.73-50.84-45.87C260.13,11.74,239.03.02,215.57,0c-.02,0-.03,0-.05,0-1.36,0-2.7.05-4.03.13-.27.02-.55.03-.82.05-1.27.09-2.53.2-3.78.35-.06,0-.12.01-.18.02-1.26.16-2.5.36-3.74.59-.37.07-.74.14-1.11.22-.91.18-1.81.38-2.71.6-.45.11-.91.22-1.35.34-.93.25-1.84.51-2.74.79-.64.2-1.26.41-1.89.62-.38.13-.76.27-1.14.41-12.69,4.63-23.17,12.93-29.33,23.63-.09.15-.17.3-.25.46-.33.59-.68,1.17-.99,1.77-2.91-.3-5.84-.45-8.77-.45-34.21,0-62.04,20.58-62.04,45.87,0,.58.02,1.15.04,1.73-28.03,3.67-48.91,20.87-50.81,42-.27.08-.53.17-.8.25-.73.21-1.46.44-2.18.68C14.57,127.3,0,143.53,0,162.02c0,25.3,27.83,45.87,62.04,45.87,6.22,0,12.32-.67,18.16-1.99,10.31,5.23,22.39,7.99,35.1,7.99,15.92,0,31.21-4.51,42.66-12.49,13.35,10.44,33.1,16.58,53.81,16.58,25.78,0,48.84-9.1,61.34-23.68,4.42,5.66,10.21,10.29,16.82,13.64.03.01.06.03.08.04,2.44,1.23,4.98,2.28,7.61,3.14.15.05.3.09.44.14,1.15.37,2.32.69,3.5.99.18.04.36.09.54.14,1.32.31,2.65.58,3.99.8.11.02.22.03.33.05,1.22.19,2.45.33,3.7.44.26.02.51.05.77.06,1.37.1,2.74.17,4.12.17,11.03,0,21.7-3.19,30.46-9.05,8.77,5.86,19.44,9.05,30.48,9.05,28.19,0,51.12-20.58,51.12-45.87s-22.92-45.87-51.1-45.87Zm-.01,81.44c-10.11,0-19.8-3.25-27.29-9.15-1.87-1.47-4.51-1.47-6.38,0-7.48,5.89-17.15,9.14-27.23,9.15-.02,0-.03,0-.05,0-1.15,0-2.29-.05-3.42-.13-.21-.02-.43-.04-.64-.06-.89-.08-1.77-.18-2.65-.31-.3-.04-.59-.09-.89-.14-.81-.13-1.61-.29-2.41-.47-.28-.06-.56-.12-.84-.19-.88-.21-1.75-.45-2.6-.71-.16-.05-.33-.09-.49-.14-2.11-.67-4.14-1.49-6.07-2.44-.09-.05-.18-.1-.27-.14-.86-.43-1.7-.89-2.51-1.37-.15-.09-.31-.19-.46-.28-.76-.46-1.51-.95-2.23-1.45-.14-.1-.29-.2-.43-.3-.76-.54-1.5-1.11-2.21-1.7-.08-.07-.17-.13-.25-.2-1.6-1.34-3.07-2.8-4.4-4.36-.13-.15-.24-.31-.37-.46-.49-.59-.96-1.19-1.41-1.81-.22-.31-.44-.63-.65-.95-.32-.47-.63-.95-.92-1.43-.24-.39-.47-.79-.69-1.19-1.4-2.54-2.48-5.23-3.16-8.08-.66-2.77-3.43-4.48-6.21-3.82-2.77.66-4.48,3.44-3.82,6.21.59,2.46,1.41,4.84,2.42,7.13-9.59,13.79-31.49,22.91-55.66,22.91-19.98,0-38.73-6.23-50.15-16.66-.95-.87-2.21-1.35-3.49-1.35-1.19,0-2.34.41-3.26,1.16-9.92,8.11-24.34,12.75-39.57,12.75-11.72,0-22.77-2.65-31.94-7.67-1.14-.62-2.48-.8-3.74-.47-5.61,1.42-11.52,2.14-17.58,2.14-28.53,0-51.73-15.95-51.73-35.57,0-14.12,12.75-27.14,31.5-32.7.35-.1.71-.2,1.06-.3.83-.23,1.67-.45,2.52-.65,5.33-1.26,10.9-1.91,16.65-1.91,7.51,0,14.75,1.09,21.53,3.25,2.71.86,5.61-.64,6.47-3.35.86-2.71-.64-5.61-3.35-6.47-7.79-2.48-16.09-3.74-24.65-3.74-3.86,0-7.66.27-11.38.77,3.57-15.74,22.56-28.49,46.17-30.04,1.5-.1,2.88-.84,3.78-2.04.9-1.2,1.24-2.73.92-4.19-.38-1.75-.57-3.52-.57-5.25,0-19.61,23.21-35.57,51.73-35.57,1.73,0,3.46.07,5.18.19-.67,2.96-1.03,6-1.03,9.12s.33,6.04.97,8.98c.53,2.41,2.66,4.05,5.03,4.05.37,0,.74-.04,1.11-.12,2.78-.61,4.54-3.36,3.93-6.14-.49-2.22-.73-4.49-.73-6.76,0-4.07.79-7.99,2.24-11.68.37-.95.8-1.87,1.25-2.78.05-.1.1-.2.15-.3.43-.84.9-1.66,1.39-2.46.14-.22.28-.45.43-.67.39-.6.8-1.2,1.23-1.78.34-.46.69-.91,1.04-1.35.26-.32.52-.64.79-.96,4.73-5.51,11.18-9.99,18.72-12.94.23-.09.45-.17.68-.26.94-.35,1.89-.68,2.86-.98.5-.16,1-.31,1.51-.45.46-.13.92-.26,1.38-.38.93-.24,1.86-.46,2.81-.65.29-.06.59-.11.89-.16.92-.17,1.84-.32,2.78-.45.19-.03.38-.06.58-.08,1.13-.14,2.27-.25,3.42-.33.2-.01.4-.03.6-.04,1.19-.07,2.39-.12,3.6-.12,17.95,0,34.12,7.95,42.48,20.31-6.81,1.34-13.25,3.9-18.99,7.65-2.38,1.56-3.06,4.75-1.5,7.13.99,1.52,2.64,2.34,4.32,2.34.96,0,1.94-.27,2.81-.84,7.09-4.62,15.53-7.07,24.41-7.07.02,0,.03,0,.05,0,22.49.02,40.77,15.97,40.77,35.56,0,3.28-.51,6.52-1.52,9.63-.52,1.59-.21,3.34.8,4.68,1,1.34,2.63,2.12,4.29,2.06.53-.02,1.06-.03,1.59-.03,21.94,0,39.89,15.17,40.76,34.11-5.83,2.25-11.2,5.47-15.84,9.6-2.13,1.89-2.32,5.15-.42,7.28,1.02,1.14,2.43,1.73,3.85,1.73,1.22,0,2.44-.43,3.43-1.3,4.6-4.09,10.13-7.07,16.18-8.83.66-.19,1.33-.37,2-.53.56-.14,1.13-.26,1.7-.38.61-.12,1.23-.24,1.85-.34.7-.11,1.41-.2,2.13-.28.52-.06,1.03-.13,1.55-.17,1.14-.09,2.29-.14,3.46-.15.1,0,.21-.01.31-.01,22.5,0,40.81,15.95,40.81,35.57s-18.31,35.57-40.81,35.57Z"/></g></svg>